<?xml version="1.0" encoding="UTF-8" standalone="no"?>
<!DOCTYPE svg PUBLIC "-//W3C//DTD SVG 1.1//EN"
 "http://www.w3.org/Graphics/SVG/1.1/DTD/svg11.dtd">
<!-- Generated by graphviz version 2.40.1 (20161225.0304)
 -->
<!-- Title: %3 Pages: 1 -->
<svg width="1025pt" height="1536pt"
 viewBox="0.00 0.00 1024.50 1536.00" xmlns="http://www.w3.org/2000/svg" xmlns:xlink="http://www.w3.org/1999/xlink">
<g id="graph0" class="graph" transform="scale(1 1) rotate(0) translate(108 1464)">
<title>%3</title>
<polygon fill="#ffffff" stroke="transparent" points="-108,72 -108,-1464 916.5,-1464 916.5,72 -108,72"/>
<!-- 1717
방목
195 -->
<g id="node1" class="node">
<title>1717
방목
195</title>
<polygon fill="none" stroke="#000000" stroke-width="2" points="692,-1303 635,-1303 635,-1246 692,-1246 692,-1303"/>
<text text-anchor="middle" x="663.5" y="-1285.8" font-family="NanumSquareRound" font-size="14.00" fill="#000000">1717</text>
<text text-anchor="middle" x="663.5" y="-1270.8" font-family="NanumSquareRound" font-size="14.00" fill="#000000">방목</text>
<text text-anchor="middle" x="663.5" y="-1255.8" font-family="NanumSquareRound" font-size="14.00" fill="#000000">195</text>
</g>
<!-- 1720
남산
316 -->
<g id="node4" class="node">
<title>1720
남산
316</title>
<polygon fill="none" stroke="#000000" points="690.5,-1210 636.5,-1210 636.5,-1157 690.5,-1157 690.5,-1210"/>
<text text-anchor="middle" x="663.5" y="-1194.8" font-family="NanumSquareRound" font-size="14.00" fill="#000000">1720</text>
<text text-anchor="middle" x="663.5" y="-1179.8" font-family="NanumSquareRound" font-size="14.00" fill="#000000">남산</text>
<text text-anchor="middle" x="663.5" y="-1164.8" font-family="NanumSquareRound" font-size="14.00" fill="#000000">316</text>
</g>
<!-- 1717
방목
195&#45;&#45;1720
남산
316 -->
<g id="edge3" class="edge">
<title>1717
방목
195&#45;&#45;1720
남산
316</title>
<path fill="none" stroke="#706c6d" stroke-width="3.1014" d="M663.5,-1245.707C663.5,-1234.3556 663.5,-1221.3932 663.5,-1210.2495"/>
<text text-anchor="middle" x="655.5" y="-1231.7782" font-family="Times,serif" font-size="14.00" fill="#000000">86</text>
</g>
<!-- 1720
방목
110 -->
<g id="node5" class="node">
<title>1720
방목
110</title>
<polygon fill="none" stroke="#000000" stroke-width="2" points="640.5,-1121 590.5,-1121 590.5,-1068 640.5,-1068 640.5,-1121"/>
<text text-anchor="middle" x="615.5" y="-1105.8" font-family="NanumSquareRound" font-size="14.00" fill="#000000">1720</text>
<text text-anchor="middle" x="615.5" y="-1090.8" font-family="NanumSquareRound" font-size="14.00" fill="#000000">방목</text>
<text text-anchor="middle" x="615.5" y="-1075.8" font-family="NanumSquareRound" font-size="14.00" fill="#000000">110</text>
</g>
<!-- 1717
방목
195&#45;&#45;1720
방목
110 -->
<g id="edge4" class="edge">
<title>1717
방목
195&#45;&#45;1720
방목
110</title>
<path fill="none" stroke="#706c6d" stroke-width="2.7177" d="M681.8415,-1245.6458C692.7579,-1228.4723 704.5,-1210 704.5,-1210 704.5,-1210 704.5,-1157 704.5,-1157 704.5,-1157 667.0781,-1130.7206 640.7658,-1112.2428"/>
<text text-anchor="middle" x="712.5" y="-1169.479" font-family="Times,serif" font-size="14.00" fill="#000000">57</text>
</g>
<!-- 1720
죽전
92 -->
<g id="node6" class="node">
<title>1720
죽전
92</title>
<polygon fill="none" stroke="#000000" points="524.5,-1210 470.5,-1210 470.5,-1157 524.5,-1157 524.5,-1210"/>
<text text-anchor="middle" x="497.5" y="-1194.8" font-family="NanumSquareRound" font-size="14.00" fill="#000000">1720</text>
<text text-anchor="middle" x="497.5" y="-1179.8" font-family="NanumSquareRound" font-size="14.00" fill="#000000">죽전</text>
<text text-anchor="middle" x="497.5" y="-1164.8" font-family="NanumSquareRound" font-size="14.00" fill="#000000">92</text>
</g>
<!-- 1717
방목
195&#45;&#45;1720
죽전
92 -->
<g id="edge5" class="edge">
<title>1717
방목
195&#45;&#45;1720
죽전
92</title>
<path fill="none" stroke="#706c6d" stroke-width=".3823" d="M634.8225,-1259.7024C597.9182,-1240.6598 538.5,-1210 538.5,-1210 538.5,-1210 532.2439,-1205.9564 524.6193,-1201.0283"/>
<text text-anchor="middle" x="575.3174" y="-1234.8618" font-family="Times,serif" font-size="14.00" fill="#000000">1</text>
</g>
<!-- 1720
신기
137 -->
<g id="node7" class="node">
<title>1720
신기
137</title>
<polygon fill="none" stroke="#000000" points="607.5,-1210 553.5,-1210 553.5,-1157 607.5,-1157 607.5,-1210"/>
<text text-anchor="middle" x="580.5" y="-1194.8" font-family="NanumSquareRound" font-size="14.00" fill="#000000">1720</text>
<text text-anchor="middle" x="580.5" y="-1179.8" font-family="NanumSquareRound" font-size="14.00" fill="#000000">신기</text>
<text text-anchor="middle" x="580.5" y="-1164.8" font-family="NanumSquareRound" font-size="14.00" fill="#000000">137</text>
</g>
<!-- 1717
방목
195&#45;&#45;1720
신기
137 -->
<g id="edge6" class="edge">
<title>1717
방목
195&#45;&#45;1720
신기
137</title>
<path fill="none" stroke="#706c6d" stroke-width=".3823" d="M637.2383,-1245.707C626.8848,-1234.3556 615.0619,-1221.3932 604.8979,-1210.2495"/>
<text text-anchor="middle" x="617.0681" y="-1231.7782" font-family="Times,serif" font-size="14.00" fill="#000000">1</text>
</g>
<!-- 1678
강루
465 -->
<g id="node2" class="node">
<title>1678
강루
465</title>
<polygon fill="none" stroke="#000000" points="619.5,-1392 565.5,-1392 565.5,-1339 619.5,-1339 619.5,-1392"/>
<text text-anchor="middle" x="592.5" y="-1376.8" font-family="NanumSquareRound" font-size="14.00" fill="#000000">1678</text>
<text text-anchor="middle" x="592.5" y="-1361.8" font-family="NanumSquareRound" font-size="14.00" fill="#000000">강루</text>
<text text-anchor="middle" x="592.5" y="-1346.8" font-family="NanumSquareRound" font-size="14.00" fill="#000000">465</text>
</g>
<!-- 1678
강루
465&#45;&#45;1717
방목
195 -->
<g id="edge1" class="edge">
<title>1678
강루
465&#45;&#45;1717
방목
195</title>
<path fill="none" stroke="#706c6d" stroke-width=".9885" d="M613.4183,-1338.6892C622.1719,-1327.4698 632.3573,-1314.4154 641.2482,-1303.0199"/>
<text text-anchor="middle" x="623.3333" y="-1324.6545" font-family="Times,serif" font-size="14.00" fill="#000000">6</text>
</g>
<!-- 1678
마흘
255 -->
<g id="node3" class="node">
<title>1678
마흘
255</title>
<polygon fill="none" stroke="#000000" points="702.5,-1392 648.5,-1392 648.5,-1339 702.5,-1339 702.5,-1392"/>
<text text-anchor="middle" x="675.5" y="-1376.8" font-family="NanumSquareRound" font-size="14.00" fill="#000000">1678</text>
<text text-anchor="middle" x="675.5" y="-1361.8" font-family="NanumSquareRound" font-size="14.00" fill="#000000">마흘</text>
<text text-anchor="middle" x="675.5" y="-1346.8" font-family="NanumSquareRound" font-size="14.00" fill="#000000">255</text>
</g>
<!-- 1678
마흘
255&#45;&#45;1717
방목
195 -->
<g id="edge2" class="edge">
<title>1678
마흘
255&#45;&#45;1717
방목
195</title>
<path fill="none" stroke="#706c6d" stroke-width=".5365" d="M671.9645,-1338.6892C670.485,-1327.4698 668.7636,-1314.4154 667.2609,-1303.0199"/>
<text text-anchor="middle" x="665.6127" y="-1324.6545" font-family="Times,serif" font-size="14.00" fill="#000000">2</text>
</g>
<!-- 1729
방목
83 -->
<g id="node10" class="node">
<title>1729
방목
83</title>
<polygon fill="none" stroke="#000000" stroke-width="2" points="476.5,-1032 426.5,-1032 426.5,-979 476.5,-979 476.5,-1032"/>
<text text-anchor="middle" x="451.5" y="-1016.8" font-family="NanumSquareRound" font-size="14.00" fill="#000000">1729</text>
<text text-anchor="middle" x="451.5" y="-1001.8" font-family="NanumSquareRound" font-size="14.00" fill="#000000">방목</text>
<text text-anchor="middle" x="451.5" y="-986.8" font-family="NanumSquareRound" font-size="14.00" fill="#000000">83</text>
</g>
<!-- 1720
방목
110&#45;&#45;1729
방목
83 -->
<g id="edge15" class="edge">
<title>1720
방목
110&#45;&#45;1729
방목
83</title>
<path fill="none" stroke="#706c6d" stroke-width="1.4809" d="M590.2044,-1081.8522C553.679,-1063.5895 490.5,-1032 490.5,-1032 490.5,-1032 484.3087,-1027.7931 476.8597,-1022.7316"/>
<text text-anchor="middle" x="524.9771" y="-1057.0385" font-family="Times,serif" font-size="14.00" fill="#000000">13</text>
</g>
<!-- 1729
강루
682 -->
<g id="node14" class="node">
<title>1729
강루
682</title>
<polygon fill="none" stroke="#000000" points="725.5,-1032 671.5,-1032 671.5,-979 725.5,-979 725.5,-1032"/>
<text text-anchor="middle" x="698.5" y="-1016.8" font-family="NanumSquareRound" font-size="14.00" fill="#000000">1729</text>
<text text-anchor="middle" x="698.5" y="-1001.8" font-family="NanumSquareRound" font-size="14.00" fill="#000000">강루</text>
<text text-anchor="middle" x="698.5" y="-986.8" font-family="NanumSquareRound" font-size="14.00" fill="#000000">682</text>
</g>
<!-- 1720
방목
110&#45;&#45;1729
강루
682 -->
<g id="edge13" class="edge">
<title>1720
방목
110&#45;&#45;1729
강루
682</title>
<path fill="none" stroke="#706c6d" stroke-width="1.0755" d="M640.4027,-1067.7971C650.9078,-1056.5326 663.1117,-1043.4465 673.6148,-1032.1841"/>
<text text-anchor="middle" x="653.0088" y="-1053.7906" font-family="Times,serif" font-size="14.00" fill="#000000">7</text>
</g>
<!-- 1729
죽전
99 -->
<g id="node15" class="node">
<title>1729
죽전
99</title>
<polygon fill="none" stroke="#000000" points="642.5,-1032 588.5,-1032 588.5,-979 642.5,-979 642.5,-1032"/>
<text text-anchor="middle" x="615.5" y="-1016.8" font-family="NanumSquareRound" font-size="14.00" fill="#000000">1729</text>
<text text-anchor="middle" x="615.5" y="-1001.8" font-family="NanumSquareRound" font-size="14.00" fill="#000000">죽전</text>
<text text-anchor="middle" x="615.5" y="-986.8" font-family="NanumSquareRound" font-size="14.00" fill="#000000">99</text>
</g>
<!-- 1720
방목
110&#45;&#45;1729
죽전
99 -->
<g id="edge14" class="edge">
<title>1720
방목
110&#45;&#45;1729
죽전
99</title>
<path fill="none" stroke="#706c6d" stroke-width=".3823" d="M615.5,-1067.7971C615.5,-1056.5326 615.5,-1043.4465 615.5,-1032.1841"/>
<text text-anchor="middle" x="611.5" y="-1053.7906" font-family="Times,serif" font-size="14.00" fill="#000000">1</text>
</g>
<!-- 1720
죽전
92&#45;&#45;1720
방목
110 -->
<g id="edge16" class="edge">
<title>1720
죽전
92&#45;&#45;1720
방목
110</title>
<path fill="none" stroke="#706c6d" stroke-width=".3823" d="M524.5716,-1163.0816C544.3038,-1148.1988 570.8544,-1128.1733 590.1691,-1113.6055"/>
<text text-anchor="middle" x="553.3703" y="-1142.1436" font-family="Times,serif" font-size="14.00" fill="#000000">1</text>
</g>
<!-- 1717
수산
255 -->
<g id="node8" class="node">
<title>1717
수산
255</title>
<polygon fill="none" stroke="#000000" points="441.5,-1210 387.5,-1210 387.5,-1157 441.5,-1157 441.5,-1210"/>
<text text-anchor="middle" x="414.5" y="-1194.8" font-family="NanumSquareRound" font-size="14.00" fill="#000000">1717</text>
<text text-anchor="middle" x="414.5" y="-1179.8" font-family="NanumSquareRound" font-size="14.00" fill="#000000">수산</text>
<text text-anchor="middle" x="414.5" y="-1164.8" font-family="NanumSquareRound" font-size="14.00" fill="#000000">255</text>
</g>
<!-- 1717
수산
255&#45;&#45;1720
방목
110 -->
<g id="edge7" class="edge">
<title>1717
수산
255&#45;&#45;1720
방목
110</title>
<path fill="none" stroke="#706c6d" stroke-width="1.3632" d="M441.6193,-1165.9717C449.2439,-1161.0436 455.5,-1157 455.5,-1157 455.5,-1157 545.0319,-1122.0266 590.1475,-1104.4033"/>
<text text-anchor="middle" x="507.6263" y="-1137.5085" font-family="Times,serif" font-size="14.00" fill="#000000">11</text>
</g>
<!-- 1717
죽전
97 -->
<g id="node9" class="node">
<title>1717
죽전
97</title>
<polygon fill="none" stroke="#000000" points="808.5,-1392 754.5,-1392 754.5,-1339 808.5,-1339 808.5,-1392"/>
<text text-anchor="middle" x="781.5" y="-1376.8" font-family="NanumSquareRound" font-size="14.00" fill="#000000">1717</text>
<text text-anchor="middle" x="781.5" y="-1361.8" font-family="NanumSquareRound" font-size="14.00" fill="#000000">죽전</text>
<text text-anchor="middle" x="781.5" y="-1346.8" font-family="NanumSquareRound" font-size="14.00" fill="#000000">97</text>
</g>
<!-- 1717
죽전
97&#45;&#45;1717
방목
195 -->
<g id="edge8" class="edge">
<title>1717
죽전
97&#45;&#45;1717
방목
195</title>
<path fill="none" stroke="#706c6d" stroke-width=".3823" d="M754.4284,-1344.6228C735.7848,-1330.2451 711.0545,-1311.1734 692.0916,-1296.5494"/>
<text text-anchor="middle" x="719.26" y="-1324.3861" font-family="Times,serif" font-size="14.00" fill="#000000">1</text>
</g>
<!-- 1717
죽전
97&#45;&#45;1720
방목
110 -->
<g id="edge9" class="edge">
<title>1717
죽전
97&#45;&#45;1720
방목
110</title>
<path fill="none" stroke="#706c6d" stroke-width=".67" d="M774.4223,-1338.6691C759.5677,-1282.3566 726.5,-1157 726.5,-1157 726.5,-1157 673.4373,-1127.1223 640.6876,-1108.6822"/>
<text text-anchor="middle" x="733.9018" y="-1204.0231" font-family="Times,serif" font-size="14.00" fill="#000000">3</text>
</g>
<!-- 1732
방목
108 -->
<g id="node12" class="node">
<title>1732
방목
108</title>
<polygon fill="none" stroke="#000000" stroke-width="2" points="476.5,-943 426.5,-943 426.5,-890 476.5,-890 476.5,-943"/>
<text text-anchor="middle" x="451.5" y="-927.8" font-family="NanumSquareRound" font-size="14.00" fill="#000000">1732</text>
<text text-anchor="middle" x="451.5" y="-912.8" font-family="NanumSquareRound" font-size="14.00" fill="#000000">방목</text>
<text text-anchor="middle" x="451.5" y="-897.8" font-family="NanumSquareRound" font-size="14.00" fill="#000000">108</text>
</g>
<!-- 1729
방목
83&#45;&#45;1732
방목
108 -->
<g id="edge17" class="edge">
<title>1729
방목
83&#45;&#45;1732
방목
108</title>
<path fill="none" stroke="#706c6d" stroke-width="2.5795" d="M451.5,-978.7971C451.5,-967.5326 451.5,-954.4465 451.5,-943.1841"/>
<text text-anchor="middle" x="443.5" y="-964.7906" font-family="Times,serif" font-size="14.00" fill="#000000">49</text>
</g>
<!-- 1720
교동
153 -->
<g id="node11" class="node">
<title>1720
교동
153</title>
<polygon fill="none" stroke="#000000" points="492.5,-1121 438.5,-1121 438.5,-1068 492.5,-1068 492.5,-1121"/>
<text text-anchor="middle" x="465.5" y="-1105.8" font-family="NanumSquareRound" font-size="14.00" fill="#000000">1720</text>
<text text-anchor="middle" x="465.5" y="-1090.8" font-family="NanumSquareRound" font-size="14.00" fill="#000000">교동</text>
<text text-anchor="middle" x="465.5" y="-1075.8" font-family="NanumSquareRound" font-size="14.00" fill="#000000">153</text>
</g>
<!-- 1720
교동
153&#45;&#45;1729
방목
83 -->
<g id="edge10" class="edge">
<title>1720
교동
153&#45;&#45;1729
방목
83</title>
<path fill="none" stroke="#706c6d" stroke-width=".5365" d="M461.2995,-1067.7971C459.5276,-1056.5326 457.4691,-1043.4465 455.6975,-1032.1841"/>
<text text-anchor="middle" x="454.4985" y="-1053.7906" font-family="Times,serif" font-size="14.00" fill="#000000">2</text>
</g>
<!-- 1735
방목
103 -->
<g id="node17" class="node">
<title>1735
방목
103</title>
<polygon fill="none" stroke="#000000" stroke-width="2" points="312.5,-854 262.5,-854 262.5,-801 312.5,-801 312.5,-854"/>
<text text-anchor="middle" x="287.5" y="-838.8" font-family="NanumSquareRound" font-size="14.00" fill="#000000">1735</text>
<text text-anchor="middle" x="287.5" y="-823.8" font-family="NanumSquareRound" font-size="14.00" fill="#000000">방목</text>
<text text-anchor="middle" x="287.5" y="-808.8" font-family="NanumSquareRound" font-size="14.00" fill="#000000">103</text>
</g>
<!-- 1732
방목
108&#45;&#45;1735
방목
103 -->
<g id="edge21" class="edge">
<title>1732
방목
108&#45;&#45;1735
방목
103</title>
<path fill="none" stroke="#706c6d" stroke-width="1.9579" d="M426.3945,-899.8676C418.3579,-894.5434 411.5,-890 411.5,-890 411.5,-890 348.8264,-858.4105 312.5933,-840.1478"/>
<text text-anchor="middle" x="362.0239" y="-872.8947" font-family="Times,serif" font-size="14.00" fill="#000000">24</text>
</g>
<!-- 1735
수산
204 -->
<g id="node20" class="node">
<title>1735
수산
204</title>
<polygon fill="none" stroke="#000000" points="478.5,-854 424.5,-854 424.5,-801 478.5,-801 478.5,-854"/>
<text text-anchor="middle" x="451.5" y="-838.8" font-family="NanumSquareRound" font-size="14.00" fill="#000000">1735</text>
<text text-anchor="middle" x="451.5" y="-823.8" font-family="NanumSquareRound" font-size="14.00" fill="#000000">수산</text>
<text text-anchor="middle" x="451.5" y="-808.8" font-family="NanumSquareRound" font-size="14.00" fill="#000000">204</text>
</g>
<!-- 1732
방목
108&#45;&#45;1735
수산
204 -->
<g id="edge22" class="edge">
<title>1732
방목
108&#45;&#45;1735
수산
204</title>
<path fill="none" stroke="#706c6d" stroke-width=".67" d="M451.5,-889.7971C451.5,-878.5326 451.5,-865.4465 451.5,-854.1841"/>
<text text-anchor="middle" x="447.5" y="-875.7906" font-family="Times,serif" font-size="14.00" fill="#000000">3</text>
</g>
<!-- 1720
마흘
185 -->
<g id="node13" class="node">
<title>1720
마흘
185</title>
<polygon fill="none" stroke="#000000" points="409.5,-1121 355.5,-1121 355.5,-1068 409.5,-1068 409.5,-1121"/>
<text text-anchor="middle" x="382.5" y="-1105.8" font-family="NanumSquareRound" font-size="14.00" fill="#000000">1720</text>
<text text-anchor="middle" x="382.5" y="-1090.8" font-family="NanumSquareRound" font-size="14.00" fill="#000000">마흘</text>
<text text-anchor="middle" x="382.5" y="-1075.8" font-family="NanumSquareRound" font-size="14.00" fill="#000000">185</text>
</g>
<!-- 1720
마흘
185&#45;&#45;1729
방목
83 -->
<g id="edge12" class="edge">
<title>1720
마흘
185&#45;&#45;1729
방목
83</title>
<path fill="none" stroke="#706c6d" stroke-width=".67" d="M403.2023,-1067.7971C411.9354,-1056.5326 422.0808,-1043.4465 430.8123,-1032.1841"/>
<text text-anchor="middle" x="413.0073" y="-1053.7906" font-family="Times,serif" font-size="14.00" fill="#000000">3</text>
</g>
<!-- 1720
마흘
185&#45;&#45;1732
방목
108 -->
<g id="edge11" class="edge">
<title>1720
마흘
185&#45;&#45;1732
방목
108</title>
<path fill="none" stroke="#706c6d" stroke-width=".7878" d="M389.2261,-1067.7117C397.793,-1033.5918 411.5,-979 411.5,-979 411.5,-979 423.6344,-960.04 434.5364,-943.0056"/>
<text text-anchor="middle" x="401.5665" y="-1006.4317" font-family="Times,serif" font-size="14.00" fill="#000000">4</text>
</g>
<!-- 1729
성내
102 -->
<g id="node16" class="node">
<title>1729
성내
102</title>
<polygon fill="none" stroke="#000000" points="559.5,-1032 505.5,-1032 505.5,-979 559.5,-979 559.5,-1032"/>
<text text-anchor="middle" x="532.5" y="-1016.8" font-family="NanumSquareRound" font-size="14.00" fill="#000000">1729</text>
<text text-anchor="middle" x="532.5" y="-1001.8" font-family="NanumSquareRound" font-size="14.00" fill="#000000">성내</text>
<text text-anchor="middle" x="532.5" y="-986.8" font-family="NanumSquareRound" font-size="14.00" fill="#000000">102</text>
</g>
<!-- 1729
성내
102&#45;&#45;1732
방목
108 -->
<g id="edge18" class="edge">
<title>1729
성내
102&#45;&#45;1732
방목
108</title>
<path fill="none" stroke="#706c6d" stroke-width=".67" d="M508.1973,-978.7971C497.9454,-967.5326 486.0356,-954.4465 475.7855,-943.1841"/>
<text text-anchor="middle" x="487.9914" y="-964.7906" font-family="Times,serif" font-size="14.00" fill="#000000">3</text>
</g>
<!-- 1750
수산
260 -->
<g id="node23" class="node">
<title>1750
수산
260</title>
<polygon fill="none" stroke="#000000" points="397.5,-765 343.5,-765 343.5,-712 397.5,-712 397.5,-765"/>
<text text-anchor="middle" x="370.5" y="-749.8" font-family="NanumSquareRound" font-size="14.00" fill="#000000">1750</text>
<text text-anchor="middle" x="370.5" y="-734.8" font-family="NanumSquareRound" font-size="14.00" fill="#000000">수산</text>
<text text-anchor="middle" x="370.5" y="-719.8" font-family="NanumSquareRound" font-size="14.00" fill="#000000">260</text>
</g>
<!-- 1735
방목
103&#45;&#45;1750
수산
260 -->
<g id="edge25" class="edge">
<title>1735
방목
103&#45;&#45;1750
수산
260</title>
<path fill="none" stroke="#706c6d" stroke-width="1.2986" d="M312.4027,-800.7971C322.9078,-789.5326 335.1117,-776.4465 345.6148,-765.1841"/>
<text text-anchor="middle" x="321.0088" y="-786.7906" font-family="Times,serif" font-size="14.00" fill="#000000">10</text>
</g>
<!-- 1750
방목
106 -->
<g id="node24" class="node">
<title>1750
방목
106</title>
<polygon fill="none" stroke="#000000" stroke-width="2" points="231.5,-765 181.5,-765 181.5,-712 231.5,-712 231.5,-765"/>
<text text-anchor="middle" x="206.5" y="-749.8" font-family="NanumSquareRound" font-size="14.00" fill="#000000">1750</text>
<text text-anchor="middle" x="206.5" y="-734.8" font-family="NanumSquareRound" font-size="14.00" fill="#000000">방목</text>
<text text-anchor="middle" x="206.5" y="-719.8" font-family="NanumSquareRound" font-size="14.00" fill="#000000">106</text>
</g>
<!-- 1735
방목
103&#45;&#45;1750
방목
106 -->
<g id="edge26" class="edge">
<title>1735
방목
103&#45;&#45;1750
방목
106</title>
<path fill="none" stroke="#706c6d" stroke-width="1.0755" d="M263.1973,-800.7971C252.9454,-789.5326 241.0356,-776.4465 230.7855,-765.1841"/>
<text text-anchor="middle" x="242.9914" y="-786.7906" font-family="Times,serif" font-size="14.00" fill="#000000">7</text>
</g>
<!-- 1750
강루
314 -->
<g id="node25" class="node">
<title>1750
강루
314</title>
<polygon fill="none" stroke="#000000" points="314.5,-765 260.5,-765 260.5,-712 314.5,-712 314.5,-765"/>
<text text-anchor="middle" x="287.5" y="-749.8" font-family="NanumSquareRound" font-size="14.00" fill="#000000">1750</text>
<text text-anchor="middle" x="287.5" y="-734.8" font-family="NanumSquareRound" font-size="14.00" fill="#000000">강루</text>
<text text-anchor="middle" x="287.5" y="-719.8" font-family="NanumSquareRound" font-size="14.00" fill="#000000">314</text>
</g>
<!-- 1735
방목
103&#45;&#45;1750
강루
314 -->
<g id="edge27" class="edge">
<title>1735
방목
103&#45;&#45;1750
강루
314</title>
<path fill="none" stroke="#706c6d" stroke-width=".3823" d="M287.5,-800.7971C287.5,-789.5326 287.5,-776.4465 287.5,-765.1841"/>
<text text-anchor="middle" x="283.5" y="-786.7906" font-family="Times,serif" font-size="14.00" fill="#000000">1</text>
</g>
<!-- 1729
수산
247 -->
<g id="node18" class="node">
<title>1729
수산
247</title>
<polygon fill="none" stroke="#000000" points="148.5,-943 94.5,-943 94.5,-890 148.5,-890 148.5,-943"/>
<text text-anchor="middle" x="121.5" y="-927.8" font-family="NanumSquareRound" font-size="14.00" fill="#000000">1729</text>
<text text-anchor="middle" x="121.5" y="-912.8" font-family="NanumSquareRound" font-size="14.00" fill="#000000">수산</text>
<text text-anchor="middle" x="121.5" y="-897.8" font-family="NanumSquareRound" font-size="14.00" fill="#000000">247</text>
</g>
<!-- 1729
수산
247&#45;&#45;1735
방목
103 -->
<g id="edge19" class="edge">
<title>1729
수산
247&#45;&#45;1735
방목
103</title>
<path fill="none" stroke="#706c6d" stroke-width=".3823" d="M148.6193,-898.9717C156.2439,-894.0436 162.5,-890 162.5,-890 162.5,-890 225.679,-858.4105 262.2044,-840.1478"/>
<text text-anchor="middle" x="200.9608" y="-872.5696" font-family="Times,serif" font-size="14.00" fill="#000000">1</text>
</g>
<!-- 1732
강루
758 -->
<g id="node19" class="node">
<title>1732
강루
758</title>
<polygon fill="none" stroke="#000000" points="231.5,-943 177.5,-943 177.5,-890 231.5,-890 231.5,-943"/>
<text text-anchor="middle" x="204.5" y="-927.8" font-family="NanumSquareRound" font-size="14.00" fill="#000000">1732</text>
<text text-anchor="middle" x="204.5" y="-912.8" font-family="NanumSquareRound" font-size="14.00" fill="#000000">강루</text>
<text text-anchor="middle" x="204.5" y="-897.8" font-family="NanumSquareRound" font-size="14.00" fill="#000000">758</text>
</g>
<!-- 1732
강루
758&#45;&#45;1735
방목
103 -->
<g id="edge20" class="edge">
<title>1732
강루
758&#45;&#45;1735
방목
103</title>
<path fill="none" stroke="#706c6d" stroke-width="2.2541" d="M229.4027,-889.7971C239.9078,-878.5326 252.1117,-865.4465 262.6148,-854.1841"/>
<text text-anchor="middle" x="238.0088" y="-875.7906" font-family="Times,serif" font-size="14.00" fill="#000000">34</text>
</g>
<!-- 1732
성내
383 -->
<g id="node21" class="node">
<title>1732
성내
383</title>
<polygon fill="none" stroke="#000000" points="314.5,-943 260.5,-943 260.5,-890 314.5,-890 314.5,-943"/>
<text text-anchor="middle" x="287.5" y="-927.8" font-family="NanumSquareRound" font-size="14.00" fill="#000000">1732</text>
<text text-anchor="middle" x="287.5" y="-912.8" font-family="NanumSquareRound" font-size="14.00" fill="#000000">성내</text>
<text text-anchor="middle" x="287.5" y="-897.8" font-family="NanumSquareRound" font-size="14.00" fill="#000000">383</text>
</g>
<!-- 1732
성내
383&#45;&#45;1735
방목
103 -->
<g id="edge23" class="edge">
<title>1732
성내
383&#45;&#45;1735
방목
103</title>
<path fill="none" stroke="#706c6d" stroke-width=".5365" d="M287.5,-889.7971C287.5,-878.5326 287.5,-865.4465 287.5,-854.1841"/>
<text text-anchor="middle" x="283.5" y="-875.7906" font-family="Times,serif" font-size="14.00" fill="#000000">2</text>
</g>
<!-- 1732
수산
199 -->
<g id="node22" class="node">
<title>1732
수산
199</title>
<polygon fill="none" stroke="#000000" points="397.5,-943 343.5,-943 343.5,-890 397.5,-890 397.5,-943"/>
<text text-anchor="middle" x="370.5" y="-927.8" font-family="NanumSquareRound" font-size="14.00" fill="#000000">1732</text>
<text text-anchor="middle" x="370.5" y="-912.8" font-family="NanumSquareRound" font-size="14.00" fill="#000000">수산</text>
<text text-anchor="middle" x="370.5" y="-897.8" font-family="NanumSquareRound" font-size="14.00" fill="#000000">199</text>
</g>
<!-- 1732
수산
199&#45;&#45;1735
방목
103 -->
<g id="edge24" class="edge">
<title>1732
수산
199&#45;&#45;1735
방목
103</title>
<path fill="none" stroke="#706c6d" stroke-width="1.6816" d="M345.5973,-889.7971C335.0922,-878.5326 322.8883,-865.4465 312.3852,-854.1841"/>
<text text-anchor="middle" x="320.9912" y="-875.7906" font-family="Times,serif" font-size="14.00" fill="#000000">17</text>
</g>
<!-- 1759
방목
89 -->
<g id="node26" class="node">
<title>1759
방목
89</title>
<polygon fill="none" stroke="#000000" stroke-width="2" points="231.5,-676 181.5,-676 181.5,-623 231.5,-623 231.5,-676"/>
<text text-anchor="middle" x="206.5" y="-660.8" font-family="NanumSquareRound" font-size="14.00" fill="#000000">1759</text>
<text text-anchor="middle" x="206.5" y="-645.8" font-family="NanumSquareRound" font-size="14.00" fill="#000000">방목</text>
<text text-anchor="middle" x="206.5" y="-630.8" font-family="NanumSquareRound" font-size="14.00" fill="#000000">89</text>
</g>
<!-- 1750
방목
106&#45;&#45;1759
방목
89 -->
<g id="edge30" class="edge">
<title>1750
방목
106&#45;&#45;1759
방목
89</title>
<path fill="none" stroke="#706c6d" stroke-width="1.4238" d="M206.5,-711.7971C206.5,-700.5326 206.5,-687.4465 206.5,-676.1841"/>
<text text-anchor="middle" x="198.5" y="-697.7906" font-family="Times,serif" font-size="14.00" fill="#000000">12</text>
</g>
<!-- 1750
강루
314&#45;&#45;1759
방목
89 -->
<g id="edge28" class="edge">
<title>1750
강루
314&#45;&#45;1759
방목
89</title>
<path fill="none" stroke="#706c6d" stroke-width="1.8094" d="M263.1973,-711.7971C252.9454,-700.5326 241.0356,-687.4465 230.7855,-676.1841"/>
<text text-anchor="middle" x="238.9914" y="-697.7906" font-family="Times,serif" font-size="14.00" fill="#000000">20</text>
</g>
<!-- 1762
강루
370 -->
<g id="node28" class="node">
<title>1762
강루
370</title>
<polygon fill="none" stroke="#000000" points="193.5,-587 139.5,-587 139.5,-534 193.5,-534 193.5,-587"/>
<text text-anchor="middle" x="166.5" y="-571.8" font-family="NanumSquareRound" font-size="14.00" fill="#000000">1762</text>
<text text-anchor="middle" x="166.5" y="-556.8" font-family="NanumSquareRound" font-size="14.00" fill="#000000">강루</text>
<text text-anchor="middle" x="166.5" y="-541.8" font-family="NanumSquareRound" font-size="14.00" fill="#000000">370</text>
</g>
<!-- 1759
방목
89&#45;&#45;1762
강루
370 -->
<g id="edge31" class="edge">
<title>1759
방목
89&#45;&#45;1762
강루
370</title>
<path fill="none" stroke="#706c6d" stroke-width="1.6351" d="M194.4987,-622.7971C189.436,-611.5326 183.5546,-598.4465 178.4928,-587.1841"/>
<text text-anchor="middle" x="178.4958" y="-608.7906" font-family="Times,serif" font-size="14.00" fill="#000000">16</text>
</g>
<!-- 1762
방목
44 -->
<g id="node29" class="node">
<title>1762
방목
44</title>
<polygon fill="none" stroke="#000000" stroke-width="2" points="272.5,-587 222.5,-587 222.5,-534 272.5,-534 272.5,-587"/>
<text text-anchor="middle" x="247.5" y="-571.8" font-family="NanumSquareRound" font-size="14.00" fill="#000000">1762</text>
<text text-anchor="middle" x="247.5" y="-556.8" font-family="NanumSquareRound" font-size="14.00" fill="#000000">방목</text>
<text text-anchor="middle" x="247.5" y="-541.8" font-family="NanumSquareRound" font-size="14.00" fill="#000000">44</text>
</g>
<!-- 1759
방목
89&#45;&#45;1762
방목
44 -->
<g id="edge32" class="edge">
<title>1759
방목
89&#45;&#45;1762
방목
44</title>
<path fill="none" stroke="#706c6d" stroke-width="2.3518" d="M218.8014,-622.7971C223.9906,-611.5326 230.019,-598.4465 235.2073,-587.1841"/>
<text text-anchor="middle" x="219.0043" y="-608.7906" font-family="Times,serif" font-size="14.00" fill="#000000">38</text>
</g>
<!-- 1750
구인
104 -->
<g id="node27" class="node">
<title>1750
구인
104</title>
<polygon fill="none" stroke="#000000" points="152.5,-765 98.5,-765 98.5,-712 152.5,-712 152.5,-765"/>
<text text-anchor="middle" x="125.5" y="-749.8" font-family="NanumSquareRound" font-size="14.00" fill="#000000">1750</text>
<text text-anchor="middle" x="125.5" y="-734.8" font-family="NanumSquareRound" font-size="14.00" fill="#000000">구인</text>
<text text-anchor="middle" x="125.5" y="-719.8" font-family="NanumSquareRound" font-size="14.00" fill="#000000">104</text>
</g>
<!-- 1750
구인
104&#45;&#45;1759
방목
89 -->
<g id="edge29" class="edge">
<title>1750
구인
104&#45;&#45;1759
방목
89</title>
<path fill="none" stroke="#706c6d" stroke-width=".5365" d="M149.8027,-711.7971C160.0546,-700.5326 171.9644,-687.4465 182.2145,-676.1841"/>
<text text-anchor="middle" x="162.0086" y="-697.7906" font-family="Times,serif" font-size="14.00" fill="#000000">2</text>
</g>
<!-- 1780
방목
80 -->
<g id="node30" class="node">
<title>1780
방목
80</title>
<polygon fill="none" stroke="#000000" stroke-width="2" points="231.5,-498 181.5,-498 181.5,-445 231.5,-445 231.5,-498"/>
<text text-anchor="middle" x="206.5" y="-482.8" font-family="NanumSquareRound" font-size="14.00" fill="#000000">1780</text>
<text text-anchor="middle" x="206.5" y="-467.8" font-family="NanumSquareRound" font-size="14.00" fill="#000000">방목</text>
<text text-anchor="middle" x="206.5" y="-452.8" font-family="NanumSquareRound" font-size="14.00" fill="#000000">80</text>
</g>
<!-- 1762
강루
370&#45;&#45;1780
방목
80 -->
<g id="edge33" class="edge">
<title>1762
강루
370&#45;&#45;1780
방목
80</title>
<path fill="none" stroke="#706c6d" stroke-width="1.535" d="M178.5013,-533.7971C183.564,-522.5326 189.4454,-509.4465 194.5072,-498.1841"/>
<text text-anchor="middle" x="178.5042" y="-519.7906" font-family="Times,serif" font-size="14.00" fill="#000000">14</text>
</g>
<!-- 1762
방목
44&#45;&#45;1780
방목
80 -->
<g id="edge34" class="edge">
<title>1762
방목
44&#45;&#45;1780
방목
80</title>
<path fill="none" stroke="#706c6d" stroke-width="1.5863" d="M235.1986,-533.7971C230.0094,-522.5326 223.981,-509.4465 218.7927,-498.1841"/>
<text text-anchor="middle" x="218.9957" y="-519.7906" font-family="Times,serif" font-size="14.00" fill="#000000">15</text>
</g>
<!-- 1783
방목
73 -->
<g id="node31" class="node">
<title>1783
방목
73</title>
<polygon fill="none" stroke="#000000" stroke-width="2" points="89.5,-409 39.5,-409 39.5,-356 89.5,-356 89.5,-409"/>
<text text-anchor="middle" x="64.5" y="-393.8" font-family="NanumSquareRound" font-size="14.00" fill="#000000">1783</text>
<text text-anchor="middle" x="64.5" y="-378.8" font-family="NanumSquareRound" font-size="14.00" fill="#000000">방목</text>
<text text-anchor="middle" x="64.5" y="-363.8" font-family="NanumSquareRound" font-size="14.00" fill="#000000">73</text>
</g>
<!-- 1780
방목
80&#45;&#45;1783
방목
73 -->
<g id="edge37" class="edge">
<title>1780
방목
80&#45;&#45;1783
방목
73</title>
<path fill="none" stroke="#706c6d" stroke-width="2.2541" d="M181.3034,-456.2108C150.8104,-437.7077 103.5,-409 103.5,-409 103.5,-409 97.3087,-404.7931 89.8597,-399.7316"/>
<text text-anchor="middle" x="127.3523" y="-432.1279" font-family="Times,serif" font-size="14.00" fill="#000000">34</text>
</g>
<!-- 1786
방목
104 -->
<g id="node33" class="node">
<title>1786
방목
104</title>
<polygon fill="none" stroke="#000000" stroke-width="2" points="253.5,-320 203.5,-320 203.5,-267 253.5,-267 253.5,-320"/>
<text text-anchor="middle" x="228.5" y="-304.8" font-family="NanumSquareRound" font-size="14.00" fill="#000000">1786</text>
<text text-anchor="middle" x="228.5" y="-289.8" font-family="NanumSquareRound" font-size="14.00" fill="#000000">방목</text>
<text text-anchor="middle" x="228.5" y="-274.8" font-family="NanumSquareRound" font-size="14.00" fill="#000000">104</text>
</g>
<!-- 1780
방목
80&#45;&#45;1786
방목
104 -->
<g id="edge38" class="edge">
<title>1780
방목
80&#45;&#45;1786
방목
104</title>
<path fill="none" stroke="#706c6d" stroke-width=".3823" d="M231.7615,-446.439C249.2886,-429.051 269.5,-409 269.5,-409 269.5,-409 269.5,-356 269.5,-356 269.5,-356 257.0622,-337.04 245.8877,-320.0056"/>
<text text-anchor="middle" x="265.5" y="-391.3554" font-family="Times,serif" font-size="14.00" fill="#000000">1</text>
</g>
<!-- 1783
방목
73&#45;&#45;1786
방목
104 -->
<g id="edge42" class="edge">
<title>1783
방목
73&#45;&#45;1786
방목
104</title>
<path fill="none" stroke="#706c6d" stroke-width="2.651" d="M89.8597,-365.2684C97.3087,-360.2069 103.5,-356 103.5,-356 103.5,-356 166.679,-324.4105 203.2044,-306.1478"/>
<text text-anchor="middle" x="137.9771" y="-338.5615" font-family="Times,serif" font-size="14.00" fill="#000000">53</text>
</g>
<!-- 1780
문경동
17 -->
<g id="node32" class="node">
<title>1780
문경동
17</title>
<polygon fill="none" stroke="#000000" points="59,-498 0,-498 0,-445 59,-445 59,-498"/>
<text text-anchor="middle" x="29.5" y="-482.8" font-family="NanumSquareRound" font-size="14.00" fill="#000000">1780</text>
<text text-anchor="middle" x="29.5" y="-467.8" font-family="NanumSquareRound" font-size="14.00" fill="#000000">문경동</text>
<text text-anchor="middle" x="29.5" y="-452.8" font-family="NanumSquareRound" font-size="14.00" fill="#000000">17</text>
</g>
<!-- 1780
문경동
17&#45;&#45;1783
방목
73 -->
<g id="edge35" class="edge">
<title>1780
문경동
17&#45;&#45;1783
방목
73</title>
<path fill="none" stroke="#706c6d" stroke-width=".67" d="M40.0012,-444.7971C44.431,-433.5326 49.5772,-420.4465 54.0063,-409.1841"/>
<text text-anchor="middle" x="43.0037" y="-430.7906" font-family="Times,serif" font-size="14.00" fill="#000000">3</text>
</g>
<!-- 1780
문경동
17&#45;&#45;1786
방목
104 -->
<g id="edge36" class="edge">
<title>1780
문경동
17&#45;&#45;1786
방목
104</title>
<path fill="none" stroke="#706c6d" stroke-width=".3823" d="M27.3795,-444.9944C26.0168,-427.96 24.5,-409 24.5,-409 24.5,-409 24.5,-356 24.5,-356 24.5,-356 149.0117,-317.853 203.4856,-301.1637"/>
<text text-anchor="middle" x="67.3926" y="-345.4334" font-family="Times,serif" font-size="14.00" fill="#000000">1</text>
</g>
<!-- 1789
방목
101 -->
<g id="node36" class="node">
<title>1789
방목
101</title>
<polygon fill="none" stroke="#000000" stroke-width="2" points="360.5,-231 310.5,-231 310.5,-178 360.5,-178 360.5,-231"/>
<text text-anchor="middle" x="335.5" y="-215.8" font-family="NanumSquareRound" font-size="14.00" fill="#000000">1789</text>
<text text-anchor="middle" x="335.5" y="-200.8" font-family="NanumSquareRound" font-size="14.00" fill="#000000">방목</text>
<text text-anchor="middle" x="335.5" y="-185.8" font-family="NanumSquareRound" font-size="14.00" fill="#000000">101</text>
</g>
<!-- 1786
방목
104&#45;&#45;1789
방목
101 -->
<g id="edge44" class="edge">
<title>1786
방목
104&#45;&#45;1789
방목
101</title>
<path fill="none" stroke="#706c6d" stroke-width="3.1232" d="M253.5867,-272.6335C270.6351,-258.453 293.1063,-239.7621 310.1997,-225.5442"/>
<text text-anchor="middle" x="273.8932" y="-252.8888" font-family="Times,serif" font-size="14.00" fill="#000000">88</text>
</g>
<!-- 1780
적성
79 -->
<g id="node34" class="node">
<title>1780
적성
79</title>
<polygon fill="none" stroke="#000000" points="172.5,-409 118.5,-409 118.5,-356 172.5,-356 172.5,-409"/>
<text text-anchor="middle" x="145.5" y="-393.8" font-family="NanumSquareRound" font-size="14.00" fill="#000000">1780</text>
<text text-anchor="middle" x="145.5" y="-378.8" font-family="NanumSquareRound" font-size="14.00" fill="#000000">적성</text>
<text text-anchor="middle" x="145.5" y="-363.8" font-family="NanumSquareRound" font-size="14.00" fill="#000000">79</text>
</g>
<!-- 1780
적성
79&#45;&#45;1786
방목
104 -->
<g id="edge39" class="edge">
<title>1780
적성
79&#45;&#45;1786
방목
104</title>
<path fill="none" stroke="#706c6d" stroke-width=".5365" d="M170.4027,-355.7971C180.9078,-344.5326 193.1117,-331.4465 203.6148,-320.1841"/>
<text text-anchor="middle" x="183.0088" y="-341.7906" font-family="Times,serif" font-size="14.00" fill="#000000">2</text>
</g>
<!-- 1783
내마흘
37 -->
<g id="node35" class="node">
<title>1783
내마흘
37</title>
<polygon fill="none" stroke="#000000" points="403,-409 344,-409 344,-356 403,-356 403,-409"/>
<text text-anchor="middle" x="373.5" y="-393.8" font-family="NanumSquareRound" font-size="14.00" fill="#000000">1783</text>
<text text-anchor="middle" x="373.5" y="-378.8" font-family="NanumSquareRound" font-size="14.00" fill="#000000">내마흘</text>
<text text-anchor="middle" x="373.5" y="-363.8" font-family="NanumSquareRound" font-size="14.00" fill="#000000">37</text>
</g>
<!-- 1783
내마흘
37&#45;&#45;1786
방목
104 -->
<g id="edge40" class="edge">
<title>1783
내마흘
37&#45;&#45;1786
방목
104</title>
<path fill="none" stroke="#706c6d" stroke-width=".8931" d="M343.8072,-364.2748C317.2937,-348.0009 278.8802,-324.423 253.7985,-309.0281"/>
<text text-anchor="middle" x="294.8029" y="-340.4514" font-family="Times,serif" font-size="14.00" fill="#000000">5</text>
</g>
<!-- 1783
내마흘
37&#45;&#45;1789
방목
101 -->
<g id="edge41" class="edge">
<title>1783
내마흘
37&#45;&#45;1789
방목
101</title>
<path fill="none" stroke="#706c6d" stroke-width=".3823" d="M367.811,-355.8516C360.6265,-322.198 348.3392,-264.6414 341.1657,-231.0395"/>
<text text-anchor="middle" x="350.4884" y="-297.2455" font-family="Times,serif" font-size="14.00" fill="#000000">1</text>
</g>
<!-- 1825
방목
122 -->
<g id="node39" class="node">
<title>1825
방목
122</title>
<polygon fill="none" stroke="#000000" stroke-width="2" points="280,-142 229,-142 229,-89 280,-89 280,-142"/>
<text text-anchor="middle" x="254.5" y="-126.8" font-family="NanumSquareRound" font-size="14.00" fill="#000000">1825</text>
<text text-anchor="middle" x="254.5" y="-111.8" font-family="NanumSquareRound" font-size="14.00" fill="#000000">방목</text>
<text text-anchor="middle" x="254.5" y="-96.8" font-family="NanumSquareRound" font-size="14.00" fill="#000000">122</text>
</g>
<!-- 1789
방목
101&#45;&#45;1825
방목
122 -->
<g id="edge48" class="edge">
<title>1789
방목
101&#45;&#45;1825
방목
122</title>
<path fill="none" stroke="#706c6d" stroke-width=".5365" d="M311.1973,-177.7971C300.9454,-166.5326 289.0356,-153.4465 278.7855,-142.1841"/>
<text text-anchor="middle" x="290.9914" y="-163.7906" font-family="Times,serif" font-size="14.00" fill="#000000">2</text>
</g>
<!-- 1825
수산
113 -->
<g id="node41" class="node">
<title>1825
수산
113</title>
<polygon fill="none" stroke="#000000" points="363.5,-142 309.5,-142 309.5,-89 363.5,-89 363.5,-142"/>
<text text-anchor="middle" x="336.5" y="-126.8" font-family="NanumSquareRound" font-size="14.00" fill="#000000">1825</text>
<text text-anchor="middle" x="336.5" y="-111.8" font-family="NanumSquareRound" font-size="14.00" fill="#000000">수산</text>
<text text-anchor="middle" x="336.5" y="-96.8" font-family="NanumSquareRound" font-size="14.00" fill="#000000">113</text>
</g>
<!-- 1789
방목
101&#45;&#45;1825
수산
113 -->
<g id="edge47" class="edge">
<title>1789
방목
101&#45;&#45;1825
수산
113</title>
<path fill="none" stroke="#706c6d" stroke-width=".8931" d="M335.8,-177.7971C335.9266,-166.5326 336.0736,-153.4465 336.2002,-142.1841"/>
<text text-anchor="middle" x="332.0001" y="-163.7906" font-family="Times,serif" font-size="14.00" fill="#000000">5</text>
</g>
<!-- 1783
적성
57 -->
<g id="node37" class="node">
<title>1783
적성
57</title>
<polygon fill="none" stroke="#000000" points="255.5,-409 201.5,-409 201.5,-356 255.5,-356 255.5,-409"/>
<text text-anchor="middle" x="228.5" y="-393.8" font-family="NanumSquareRound" font-size="14.00" fill="#000000">1783</text>
<text text-anchor="middle" x="228.5" y="-378.8" font-family="NanumSquareRound" font-size="14.00" fill="#000000">적성</text>
<text text-anchor="middle" x="228.5" y="-363.8" font-family="NanumSquareRound" font-size="14.00" fill="#000000">57</text>
</g>
<!-- 1783
적성
57&#45;&#45;1786
방목
104 -->
<g id="edge43" class="edge">
<title>1783
적성
57&#45;&#45;1786
방목
104</title>
<path fill="none" stroke="#706c6d" stroke-width="1.3632" d="M228.5,-355.7971C228.5,-344.5326 228.5,-331.4465 228.5,-320.1841"/>
<text text-anchor="middle" x="221" y="-341.7906" font-family="Times,serif" font-size="14.00" fill="#000000">11</text>
</g>
<!-- 1786
어리천
39 -->
<g id="node38" class="node">
<title>1786
어리천
39</title>
<polygon fill="none" stroke="#000000" points="439,-320 380,-320 380,-267 439,-267 439,-320"/>
<text text-anchor="middle" x="409.5" y="-304.8" font-family="NanumSquareRound" font-size="14.00" fill="#000000">1786</text>
<text text-anchor="middle" x="409.5" y="-289.8" font-family="NanumSquareRound" font-size="14.00" fill="#000000">어리천</text>
<text text-anchor="middle" x="409.5" y="-274.8" font-family="NanumSquareRound" font-size="14.00" fill="#000000">39</text>
</g>
<!-- 1786
어리천
39&#45;&#45;1789
방목
101 -->
<g id="edge45" class="edge">
<title>1786
어리천
39&#45;&#45;1789
방목
101</title>
<path fill="none" stroke="#706c6d" stroke-width=".3823" d="M387.2976,-266.7971C377.9316,-255.5326 367.051,-242.4465 357.6868,-231.1841"/>
<text text-anchor="middle" x="368.4922" y="-252.7906" font-family="Times,serif" font-size="14.00" fill="#000000">1</text>
</g>
<!-- 1828
방목
109 -->
<g id="node42" class="node">
<title>1828
방목
109</title>
<polygon fill="none" stroke="#000000" stroke-width="2" points="279.5,-53 229.5,-53 229.5,0 279.5,0 279.5,-53"/>
<text text-anchor="middle" x="254.5" y="-37.8" font-family="NanumSquareRound" font-size="14.00" fill="#000000">1828</text>
<text text-anchor="middle" x="254.5" y="-22.8" font-family="NanumSquareRound" font-size="14.00" fill="#000000">방목</text>
<text text-anchor="middle" x="254.5" y="-7.8" font-family="NanumSquareRound" font-size="14.00" fill="#000000">109</text>
</g>
<!-- 1825
방목
122&#45;&#45;1828
방목
109 -->
<g id="edge49" class="edge">
<title>1825
방목
122&#45;&#45;1828
방목
109</title>
<path fill="none" stroke="#706c6d" stroke-width="3.0679" d="M254.5,-88.7971C254.5,-77.5326 254.5,-64.4465 254.5,-53.1841"/>
<text text-anchor="middle" x="246.5" y="-74.7906" font-family="Times,serif" font-size="14.00" fill="#000000">83</text>
</g>
<!-- 1789
교
161 -->
<g id="node40" class="node">
<title>1789
교
161</title>
<polygon fill="none" stroke="#000000" points="281.5,-231 227.5,-231 227.5,-178 281.5,-178 281.5,-231"/>
<text text-anchor="middle" x="254.5" y="-215.8" font-family="NanumSquareRound" font-size="14.00" fill="#000000">1789</text>
<text text-anchor="middle" x="254.5" y="-200.8" font-family="NanumSquareRound" font-size="14.00" fill="#000000">교</text>
<text text-anchor="middle" x="254.5" y="-185.8" font-family="NanumSquareRound" font-size="14.00" fill="#000000">161</text>
</g>
<!-- 1789
교
161&#45;&#45;1825
방목
122 -->
<g id="edge46" class="edge">
<title>1789
교
161&#45;&#45;1825
방목
122</title>
<path fill="none" stroke="#706c6d" stroke-width=".67" d="M254.5,-177.7971C254.5,-166.5326 254.5,-153.4465 254.5,-142.1841"/>
<text text-anchor="middle" x="250.5" y="-163.7906" font-family="Times,serif" font-size="14.00" fill="#000000">3</text>
</g>
</g>
</svg>
